<?xml version="1.0" encoding="UTF-8"?>
<!-- Generated by Pixelmator Pro 2.4.1 -->
<svg width="512" height="512" viewBox="0 0 512 512" xmlns="http://www.w3.org/2000/svg" xmlns:xlink="http://www.w3.org/1999/xlink">
    <g id="Group">
        <linearGradient id="linearGradient1" x1="1.232444" y1="80.522786" x2="514.523017" y2="345.94437" gradientUnits="userSpaceOnUse">
            <stop offset="1e-05" stop-color="#c4ccd2" stop-opacity="1"/>
            <stop offset="1" stop-color="#4c5971" stop-opacity="1"/>
        </linearGradient>
        <path id="Path" fill="url(#linearGradient1)" stroke="none" d="M 521.578796 124.025696 C 443.761108 188.471893 354.873596 175.100403 354.873596 175.100403 C 345.118988 89.939392 257.546722 81.5 257.546722 81.5 C 257.546722 81.5 169.974472 90.048981 160.219849 175.209991 C 160.219849 175.209991 71.441948 188.581512 -6.485315 124.135315 C -6.485315 124.135315 -32.022659 182.553375 125.475906 231.216797 L 146.738754 262.891876 L 118.790154 312.760925 C 99.280945 345.641663 113.967659 350.464142 113.967659 350.464142 L 145.642731 380.824005 L 184.551559 303.554352 L 191.894928 236.039307 L 244.175247 249.410797 L 234.420624 303.554352 L 257.546722 317.583435 L 280.672821 303.554352 L 270.918243 249.410797 L 323.198517 236.039307 L 330.541901 303.554352 L 369.450745 380.824005 L 401.125793 350.464142 C 401.125793 350.464142 415.702911 345.641663 396.303314 312.760925 L 368.245087 262.672668 L 389.507935 230.997589 C 547.11615 182.443756 521.578796 124.025696 521.578796 124.025696 Z"/>
        <linearGradient id="linearGradient2" x1="151.332196" y1="329.058704" x2="378.501247" y2="435.24562" gradientUnits="userSpaceOnUse">
            <stop offset="1e-05" stop-color="#8b939d" stop-opacity="1"/>
            <stop offset="1" stop-color="#55627c" stop-opacity="1"/>
        </linearGradient>
        <path id="path1" fill="url(#linearGradient2)" stroke="none" d="M 303.79892 322.296356 L 303.79892 387.948151 L 275.850342 397.702759 L 275.850342 366.02771 L 257.656342 366.02771 L 239.462341 366.02771 L 239.462341 397.702759 L 211.513748 387.948151 L 211.513748 322.296356 L 185.976395 322.296356 L 156.822189 387.948151 C 156.822189 387.948151 239.13353 457.764832 243.188812 461.272125 C 247.24411 464.779419 251.5186 463.902588 251.5186 463.902588 L 257.765961 463.902588 L 264.013275 463.902588 C 264.013275 463.902588 268.28775 464.6698 272.343048 461.272125 C 276.398346 457.764832 358.709686 387.948151 358.709686 387.948151 L 329.555481 322.296356 L 303.79892 322.296356 Z"/>
    </g>
</svg>
